<svg xmlns="http://www.w3.org/2000/svg" aria-hidden="true" overflow="hidden" style="position:absolute;width:0;height:0">
  <defs>
    <symbol id="icon-Arrow-left" viewBox="0 0 42 32">
      <path d="M4.062 14.769 16.247 2.584a2.48 2.48 0 0 0 0-3.495 2.436 2.436 0 0 0-3.495 0L-1.156 13.021a2.408 2.408 0 0 0 0 3.471l13.908 13.932a2.436 2.436 0 0 0 3.495 0 2.48 2.48 0 0 0 0-3.495L4.062 14.769z"/>
      <path d="m6.523 12.308 9.723-9.723a2.48 2.48 0 0 0 0-3.495 2.436 2.436 0 0 0-3.495 0L-1.157 13.022a2.408 2.408 0 0 0 0 3.471l13.908 13.932a2.436 2.436 0 0 0 3.495 0 2.48 2.48 0 0 0 0-3.495l-9.723-9.698h35.323v-4.923H6.523z"/>
    </symbol>
    <symbol id="icon-Arrow-right" viewBox="0 0 44 32">
      <path d="m35.889 14.769-12.185 12.16a2.48 2.48 0 0 0 0 3.495 2.436 2.436 0 0 0 3.495 0l13.908-13.932a2.408 2.408 0 0 0 0-3.471L27.199-.911a2.436 2.436 0 0 0-3.495 0 2.48 2.48 0 0 0 0 3.495l12.185 12.185z"/>
      <path d="m33.428 17.231-9.723 9.698a2.48 2.48 0 0 0 0 3.495 2.436 2.436 0 0 0 3.495 0l13.908-13.932a2.408 2.408 0 0 0 0-3.471L27.2-.911a2.436 2.436 0 0 0-3.495 0 2.48 2.48 0 0 0 0 3.495l9.723 9.723H-1.895v4.923h35.323z"/>
    </symbol>
    <symbol id="icon-crown-light" viewBox="0 0 32 32">
      <path d="M29.687 10.32a1.688 1.688 0 0 0-.887-.42c-.327-.053-.653 0-.953.147l-6.313 3.08c-.027.02-.06.027-.087.033-.033 0-.067 0-.093-.013-.033-.007-.06-.027-.087-.047l-.06-.08-3.687-7.287A1.802 1.802 0 0 0 16.88 5a1.624 1.624 0 0 0-.88-.267c-.313 0-.62.093-.893.267a1.83 1.83 0 0 0-.633.733l-3.687 7.287-.06.08c-.027.02-.053.04-.087.047-.027.013-.06.013-.093.013-.027-.007-.06-.013-.087-.033l-6.313-3.08a1.624 1.624 0 0 0-1.833.267 1.932 1.932 0 0 0-.547.873 2.12 2.12 0 0 0-.047 1.06L4.907 27.14c.053.253.153.487.293.693.14.213.32.387.52.513.267.18.573.28.887.28.16-.007.32-.027.48-.073a30.58 30.58 0 0 1 17.807-.013 1.6 1.6 0 0 0 .707.06c.233-.027.46-.113.66-.247.207-.127.387-.307.527-.513s.24-.447.3-.7l3.173-14.893c.08-.347.067-.713-.033-1.053a2.036 2.036 0 0 0-.54-.873zm-.88 1.54L25.62 26.753a.29.29 0 0 1-.113.18.3.3 0 0 1-.2.027 31.879 31.879 0 0 0-18.62 0 .2.2 0 0 1-.107.007c-.033 0-.067-.013-.093-.033s-.053-.047-.073-.08a.231.231 0 0 1-.04-.1L3.187 11.861c-.007-.04-.007-.08 0-.12s.027-.08.053-.113a.248.248 0 0 1 .087-.08c.033-.013.067-.027.107-.027l.1.027 6.327 3.093c.4.2.847.22 1.267.067a1.74 1.74 0 0 0 .967-.893l3.693-7.287c.02-.04.047-.08.087-.107a.248.248 0 0 1 .247 0c.04.027.067.067.087.107l3.687 7.287c.213.427.56.747.973.893.413.153.867.133 1.267-.067l6.327-3.093c.04-.02.087-.027.133-.02s.093.027.127.06c.04.033.067.073.08.127.02.047.02.1.007.147zm-8.06 10.453a.852.852 0 0 1-.247.527.708.708 0 0 1-.5.213h-.08a35.866 35.866 0 0 0-7.847 0 .71.71 0 0 1-.553-.173c-.153-.14-.253-.333-.273-.553s.04-.433.167-.607a.777.777 0 0 1 .507-.3 34.74 34.74 0 0 1 8.153 0 .765.765 0 0 1 .5.3c.127.16.187.38.173.593z"/>
    </symbol>
    <symbol id="icon-facebook" viewBox="0 0 32 32">
      <path d="M23.98 1.62a38.95 38.95 0 0 0-4.05-.21c-4.48 0-7.27 2.86-7.27 7.46v3.12H8.89c-.17 0-.34.07-.47.19-.12.13-.19.3-.19.48v5.13a.665.665 0 0 0 .66.67h3.77v10.29c0 .18.07.35.2.47.12.13.29.2.47.2h5.3c.18 0 .35-.07.47-.2.13-.12.2-.29.2-.47V18.46h3.75c.17 0 .32-.06.44-.17.13-.11.2-.25.23-.41l.66-5.14c.01-.09 0-.19-.03-.28-.02-.09-.07-.17-.13-.24s-.14-.13-.23-.17a.626.626 0 0 0-.27-.06H19.3V9.38c0-1.3.26-1.84 1.88-1.84h2.71c.18 0 .35-.07.48-.19.12-.13.19-.3.19-.47v-4.6a.72.72 0 0 0-.16-.44.691.691 0 0 0-.42-.22zm-.75 4.59h-2.05c-2.88 0-3.21 1.81-3.21 3.17v3.28c0 .17.07.34.19.47.13.12.29.19.47.19h4.33l-.49 3.8h-3.84a.668.668 0 0 0-.66.67v10.29H14V17.79c0-.18-.08-.35-.2-.47a.65.65 0 0 0-.47-.2H9.56v-3.8h3.77c.18 0 .34-.07.47-.19.12-.13.2-.3.2-.47V8.87c0-3.83 2.22-6.12 5.93-6.12 1.35 0 2.56.07 3.3.14v3.32z"/>
    </symbol>
    <symbol id="icon-facebook-footer" viewBox="0 0 32 32">
      <path d="M23.985 2.126a36.107 36.107 0 0 0-4.053-.206c-4.48 0-7.269 2.85-7.269 7.451v3.116H8.899a.667.667 0 0 0-.472.198.648.648 0 0 0-.198.472v5.135a.664.664 0 0 0 .67.662h3.764v10.293c0 .175.069.35.198.472.122.122.29.198.472.198h5.303a.695.695 0 0 0 .472-.198.674.674 0 0 0 .19-.472V18.954h3.756a.667.667 0 0 0 .663-.579l.663-5.135a.872.872 0 0 0-.023-.282.849.849 0 0 0-.137-.244.687.687 0 0 0-.503-.229h-4.419V9.879c0-1.295.259-1.836 1.882-1.836h2.712a.64.64 0 0 0 .472-.198.637.637 0 0 0 .198-.472V2.786a.667.667 0 0 0-.579-.663zm-.755 4.586h-2.057c-2.872 0-3.208 1.806-3.208 3.17v3.276c0 .175.069.35.198.472.122.122.29.198.465.198h4.335l-.495 3.794h-3.832a.667.667 0 0 0-.472.198.648.648 0 0 0-.198.472v10.293h-3.97V18.292a.652.652 0 0 0-.198-.472.665.665 0 0 0-.465-.198H9.562v-3.794h3.771a.665.665 0 0 0 .465-.198.648.648 0 0 0 .198-.472V9.371c0-3.832 2.217-6.118 5.935-6.118 1.349 0 2.56.069 3.299.137v3.322z"/>
    </symbol>
    <symbol id="icon-instagram" viewBox="0 0 32 32">
      <path d="M16 9.75c-1.14 0-2.25.33-3.2.96-.95.64-1.68 1.53-2.12 2.58a5.753 5.753 0 0 0-.32 3.33 5.68 5.68 0 0 0 1.57 2.94c.8.81 1.83 1.35 2.94 1.57 1.12.23 2.27.11 3.33-.32a5.803 5.803 0 0 0 2.58-2.12c.63-.95.97-2.06.97-3.19A5.752 5.752 0 0 0 16 9.75zm0 10a4.238 4.238 0 0 1-3.93-2.63c-.32-.78-.41-1.63-.24-2.45a4.22 4.22 0 0 1 3.34-3.34c.82-.17 1.67-.08 2.45.24s1.44.86 1.91 1.56c.47.7.72 1.52.72 2.37-.01 1.12-.46 2.2-1.25 3-.8.79-1.88 1.24-3 1.25zm5.5-16.5h-11c-1.8 0-3.51.71-4.78 1.97A6.775 6.775 0 0 0 3.75 10v11c0 1.79.71 3.5 1.97 4.77a6.784 6.784 0 0 0 4.78 1.98h11c1.79 0 3.5-.72 4.77-1.98A6.778 6.778 0 0 0 28.25 21V10c0-1.8-.72-3.51-1.98-4.78a6.769 6.769 0 0 0-4.77-1.97zM26.75 21c0 1.39-.56 2.72-1.54 3.71a5.28 5.28 0 0 1-3.71 1.54h-11c-1.4 0-2.73-.56-3.72-1.54A5.27 5.27 0 0 1 5.25 21V10c0-1.4.55-2.73 1.53-3.72.99-.98 2.32-1.53 3.72-1.53h11c1.39 0 2.72.55 3.71 1.53.98.99 1.54 2.32 1.54 3.72v11zm-3-12c0 .24-.08.48-.22.69-.13.2-.33.37-.56.46-.22.09-.48.12-.72.07s-.46-.17-.64-.34c-.17-.18-.29-.4-.34-.64s-.02-.49.07-.72a1.25 1.25 0 0 1 1.16-.77c.33 0 .64.13.88.36.23.24.37.55.37.89z"/>
    </symbol>
    <symbol id="icon-instagram-footer" viewBox="0 0 32 32">
      <path d="M16 10.248a5.742 5.742 0 0 0-5.318 3.551 5.763 5.763 0 0 0-.328 3.322 5.716 5.716 0 0 0 1.577 2.941 5.709 5.709 0 0 0 2.941 1.577 5.756 5.756 0 0 0 5.905-2.446 5.743 5.743 0 0 0 .968-3.192 5.726 5.726 0 0 0-1.684-4.069A5.717 5.717 0 0 0 16 10.248zm0 9.996a4.186 4.186 0 0 1-2.362-.716c-.701-.465-1.25-1.128-1.57-1.905s-.404-1.63-.244-2.453a4.265 4.265 0 0 1 3.345-3.345c.823-.16 1.676-.076 2.453.244s1.44.869 1.905 1.57c.472.693.716 1.516.716 2.362a4.22 4.22 0 0 1-1.25 2.994 4.22 4.22 0 0 1-2.994 1.25zm5.493-16.495H10.499c-1.79 0-3.512.709-4.777 1.973s-1.973 2.987-1.973 4.777v10.994c0 1.79.709 3.512 1.973 4.777s2.987 1.973 4.777 1.973h10.994c1.79 0 3.512-.709 4.777-1.973s1.973-2.987 1.973-4.777V10.499c0-1.79-.709-3.512-1.973-4.777s-2.987-1.973-4.777-1.973zm5.25 17.744a5.274 5.274 0 0 1-1.531 3.718 5.27 5.27 0 0 1-3.718 1.531H10.5a5.274 5.274 0 0 1-3.718-1.531 5.27 5.27 0 0 1-1.531-3.718V10.499c0-1.394.549-2.728 1.531-3.718A5.27 5.27 0 0 1 10.5 5.25h10.994c1.394 0 2.728.549 3.718 1.531a5.27 5.27 0 0 1 1.531 3.718v10.994zm-2.994-12c0 .251-.076.495-.213.701s-.335.366-.564.457c-.229.091-.48.122-.716.069-.244-.046-.465-.168-.64-.343s-.297-.396-.343-.64c-.053-.236-.023-.488.069-.716s.259-.427.457-.564c.206-.137.45-.213.701-.213.328 0 .648.137.884.366.229.236.366.556.366.884z"/>
    </symbol>
    <symbol id="icon-logo" viewBox="0 0 63 32">
      <path fill="#2b7fff" style="fill: var(--color1, #2b7fff)" d="M1.332.624h5.004c1.18 0 2.087.089 2.721.266.647.165 1.104.438 1.37.818.266.368.4.888.4 1.56V4.79c0 .343-.139.666-.419.97a2.06 2.06 0 0 1-.951.628v.095c.482.051.92.26 1.313.628.406.355.609.755.609 1.199v1.903c0 1.002-.4 1.712-1.199 2.131s-2.036.628-3.71.628H1.333V.623zm5.004 5.024c.469 0 .818-.038 1.046-.114s.381-.197.457-.362c.089-.178.133-.431.133-.761v-.609c0-.292-.038-.507-.114-.647-.076-.152-.235-.26-.476-.323-.228-.063-.596-.095-1.104-.095H4.299v2.911h2.036zm.076 5.213c.723 0 1.237-.082 1.541-.247s.457-.431.457-.799v-.989c0-.457-.12-.78-.361-.97-.228-.19-.641-.285-1.237-.285H4.3v3.292h2.112zm11.507 2.302c-3.26 0-4.89-.996-4.89-2.987V6.865c0-1.154.368-1.992 1.104-2.512.748-.52 1.896-.78 3.444-.78 1.459 0 2.524.254 3.197.761.685.495 1.027 1.338 1.027 2.531V9.11h-5.974v.837c0 .533.19.913.571 1.142s1.066.342 2.055.342c.913 0 1.941-.133 3.082-.4v1.77a17.295 17.295 0 0 1-3.615.361zm1.237-5.632V6.199a.748.748 0 0 0-.381-.685c-.241-.152-.653-.228-1.237-.228-.672 0-1.123.076-1.351.228a.785.785 0 0 0-.361.685v1.332h3.33zm7.374 5.632c-.863 0-1.509-.076-1.941-.228a1.56 1.56 0 0 1-.894-.856c-.165-.419-.247-1.04-.247-1.865 0-.736.089-1.313.266-1.731.19-.419.488-.717.894-.894.419-.19.989-.285 1.712-.285h3.12v-.628c0-.393-.057-.685-.171-.875-.101-.19-.298-.323-.59-.4-.279-.076-.704-.114-1.275-.114-.786 0-1.865.076-3.235.228v-1.75c1.002-.127 2.175-.19 3.52-.19 1.18 0 2.087.089 2.721.266.647.178 1.11.482 1.389.913s.419 1.059.419 1.884v6.336h-2.721v-.837a1.794 1.794 0 0 1-.875.78c-.368.165-1.066.247-2.093.247zm1.085-1.731c.558 0 .958-.019 1.199-.057.178-.025.298-.063.361-.114a.556.556 0 0 0 .19-.247c.051-.089.076-.222.076-.4V8.825h-1.903c-.431 0-.736.032-.913.095a.515.515 0 0 0-.361.342c-.063.165-.095.463-.095.894 0 .419.032.71.095.875s.184.273.361.323c.19.051.52.076.989.076zm10.245 1.731c-1.18 0-2.011-.209-2.493-.628-.469-.431-.704-1.104-.704-2.017V3.763h2.778v6.374c0 .355.032.622.095.799a.697.697 0 0 0 .419.381c.216.076.539.114.97.114.545 0 .945-.032 1.199-.095.254-.076.425-.203.514-.381s.133-.45.133-.818V3.763h2.778v9.209h-2.74v-1.123c-.203.875-1.186 1.313-2.949 1.313zm12.724 0c-.469 0-.863-.019-1.18-.057s-.634-.114-.951-.228a2.401 2.401 0 0 1-.875-.476c-.216-.203-.393-.482-.533-.837a3.32 3.32 0 0 1-.228-1.275V5.476h-1.865V3.764h1.865V1.1h2.778v2.664h2.531v1.712h-2.531v4.338c0 .444.038.78.114 1.008a.808.808 0 0 0 .438.476c.216.089.545.133.989.133.178 0 .507-.032.989-.095v1.731c-.596.063-1.11.095-1.541.095zm5.751-.266-3.672-9.133h3.025l2.074 6.507 1.884-6.507h2.873l-5.042 13.167h-2.816l1.674-4.034zM.761 29.328l6.431-8.429H.951v-2.112h9.894v1.789l-6.431 8.429h6.545v2.131H.761v-1.808zm16.521 1.997c-.571 0-1.04-.019-1.408-.057s-.761-.114-1.18-.228c-.457-.127-.824-.304-1.104-.533-.279-.241-.514-.577-.704-1.008-.19-.419-.285-.926-.285-1.522v-2.721c0-.609.095-1.142.285-1.598s.438-.812.742-1.066c.266-.216.615-.393 1.046-.533a5.539 5.539 0 0 1 1.294-.285c.482-.025.92-.038 1.313-.038.584 0 1.046.019 1.389.057a5.32 5.32 0 0 1 1.161.228c.457.14.824.33 1.104.571.292.241.539.584.742 1.027.19.457.285 1.002.285 1.636v2.721c0 .571-.095 1.072-.285 1.503-.178.431-.412.767-.704 1.008-.254.216-.603.393-1.046.533a6.621 6.621 0 0 1-1.275.247c-.381.038-.837.057-1.37.057zm0-1.731c.52 0 .913-.038 1.18-.114.266-.089.45-.222.552-.4.114-.178.171-.438.171-.78v-3.482c0-.507-.133-.863-.4-1.066s-.767-.304-1.503-.304c-.736 0-1.237.101-1.503.304s-.4.558-.4 1.066V28.3c0 .343.051.603.152.78.114.178.304.311.571.4.266.076.66.114 1.18.114zm6.846-7.668h2.74v1.123c.216-.875 1.199-1.313 2.949-1.313 1.18 0 2.004.216 2.474.647.482.419.723 1.085.723 1.998v6.755h-2.778v-6.393c0-.355-.038-.622-.114-.799-.063-.178-.203-.304-.419-.381-.203-.076-.52-.114-.951-.114-.545 0-.945.038-1.199.114-.254.063-.425.184-.514.361s-.133.45-.133.818v6.393h-2.778v-9.209zm15.94 9.399c-3.26 0-4.89-.996-4.89-2.987v-3.311c0-1.154.368-1.992 1.104-2.512.748-.52 1.896-.78 3.444-.78 1.459 0 2.524.254 3.197.761.685.495 1.027 1.338 1.027 2.531v2.245h-5.974v.837c0 .533.19.913.571 1.142s1.066.343 2.055.343c.913 0 1.941-.133 3.082-.4v1.77a17.295 17.295 0 0 1-3.615.361zm1.236-5.632v-1.332a.748.748 0 0 0-.381-.685c-.241-.152-.653-.228-1.237-.228-.672 0-1.123.076-1.351.228a.785.785 0 0 0-.361.685v1.332h3.33z"/>
    </symbol>
    <symbol id="icon-medicine-soap" viewBox="0 0 32 32">
      <path d="M8.733 11.713h-8.86a.48.48 0 0 0-.493.473v2.833c0 .26.22.473.493.473h.493v10.86c0 .26.22.473.493.473h6.893a.482.482 0 0 0 .487-.473v-10.86h.493a.484.484 0 0 0 .493-.473v-2.833a.48.48 0 0 0-.493-.473zM3.32 20.687v-.947h2.953v-.94H3.32v-.947h3.94v6.14H3.32v-2.36h.987v-.947H3.32zm3.94-3.78H2.827a.484.484 0 0 0-.493.473v7.087c0 .26.22.473.493.473H7.26v.94H1.353V15.493H7.26v1.413zm.98-2.36H.367v-1.893H8.24v1.893zm7.02-2.747V8.347a.49.49 0 0 0-.493-.487h-.493V5.427h.987V4.46h-5.42v.967h3.447V7.86h-.493a.49.49 0 0 0-.487.487V11.8c-1.127.227-1.973 1.207-1.973 2.38v12.16c0 .267.22.487.493.487h5.907a.49.49 0 0 0 .493-.487V14.18c0-1.173-.847-2.153-1.967-2.38zm-1.973-2.967h.987v2.92h-.987v-2.92zm-.494 3.894h1.973c.813 0 1.473.653 1.473 1.453v.487h-4.92v-.487c0-.8.66-1.453 1.473-1.453zm3.447 11.18h-4.92v-.973h1.967v-.967H11.32V15.64h4.92v8.267zm-4.92 1.946v-.973h4.92v.973h-4.92zm16.52-14.746h-8.307a.47.47 0 0 0-.46.48v14.767c0 .26.207.473.46.473h8.307a.47.47 0 0 0 .467-.473V11.587a.471.471 0 0 0-.467-.48zm-.46 14.766H20V12.06h7.38v13.813z"/>
      <path d="M5.533 20.78h1.233v.607H5.533v-.607zm8.62 1.207h1.227V23.2h-1.227v-1.213zm-.313-1.207c1.193 0 2.16-.947 2.16-2.113s-.967-2.12-2.16-2.12c-1.187 0-2.153.953-2.153 2.12s.967 2.113 2.153 2.113zm0-3.173c.6 0 1.08.473 1.08 1.06 0 .58-.48 1.053-1.08 1.053a1.064 1.064 0 0 1-1.073-1.053c0-.587.48-1.06 1.073-1.06zm8.693-1.66h2.307c.893 0 1.62-.68 1.62-1.513s-.727-1.513-1.62-1.513h-2.307c-.887 0-1.613.68-1.613 1.513s.727 1.513 1.613 1.513zm3-1.514c0 .353-.307.647-.693.647h-.687v-1.293h.687c.387 0 .693.287.693.647zm-3-.646h.693v1.293h-.693c-.38 0-.693-.293-.693-.647 0-.36.313-.647.693-.647zm0 6.993h2.307c.893 0 1.62-.813 1.62-1.813s-.727-1.813-1.62-1.813h-2.307c-.887 0-1.613.813-1.613 1.813s.727 1.813 1.613 1.813zm3-1.813c0 .427-.307.78-.693.78h-.687v-1.56h.687c.387 0 .693.353.693.78zm-3-.78h.693v1.56h-.693c-.38 0-.693-.353-.693-.78s.313-.78.693-.78zm0 6.826h2.307c.893 0 1.62-.813 1.62-1.813s-.727-1.813-1.62-1.813h-2.307c-.887 0-1.613.813-1.613 1.813s.727 1.813 1.613 1.813zm3-1.813c0 .427-.307.773-.693.773h-.687V22.42h.687c.387 0 .693.353.693.78zm-3-.78h.693v1.553h-.693c-.38 0-.693-.347-.693-.773s.313-.78.693-.78z"/>
    </symbol>
    <symbol id="icon-nuclear" viewBox="0 0 32 32">
      <path d="M16.051 1.194c-.903 0-1.743.411-2.457 1.086-.72.669-1.331 1.606-1.84 2.737-.109.234-.211.486-.309.737a12.471 12.471 0 0 0-1.697-.16c-.88-.023-1.686.069-2.389.28-.943.286-1.714.811-2.166 1.589-.451.783-.514 1.714-.291 2.669s.726 1.954 1.451 2.966c.149.211.314.423.486.634-.171.206-.331.417-.486.634-.726 1.011-1.229 2.006-1.451 2.966-.223.954-.16 1.886.291 2.669.451.777 1.223 1.303 2.166 1.589.937.28 2.057.349 3.291.223.257-.029.526-.063.794-.103.091.251.194.497.309.737.509 1.131 1.12 2.069 1.84 2.743.714.669 1.554 1.08 2.457 1.08.897 0 1.737-.411 2.457-1.08.714-.674 1.326-1.611 1.84-2.743.109-.24.211-.486.309-.737.269.04.531.074.789.103 1.24.126 2.354.057 3.291-.223.943-.286 1.72-.811 2.166-1.589.451-.783.514-1.714.291-2.669s-.726-1.954-1.446-2.966c-.16-.217-.32-.429-.486-.634.166-.206.326-.417.486-.634.72-1.011 1.229-2.011 1.451-2.966s.154-1.886-.297-2.669c-.446-.777-1.223-1.303-2.16-1.589-.709-.211-1.509-.303-2.389-.28-.297.006-.594.029-.909.057-.257.023-.52.063-.789.103-.097-.251-.2-.497-.309-.737-.514-1.131-1.126-2.069-1.84-2.737-.72-.674-1.56-1.086-2.457-1.086zm0 1.006c.6 0 1.189.263 1.771.811.583.543 1.137 1.371 1.611 2.417.08.171.149.343.217.514-1.143.257-2.36.646-3.6 1.171a21.777 21.777 0 0 0-3.606-1.171c.069-.177.143-.349.217-.514.474-1.046 1.029-1.874 1.611-2.423.589-.543 1.177-.806 1.777-.806zM9.429 6.594h.297c.263.006.537.023.823.051.183.017.371.046.56.069a21.042 21.042 0 0 0-.789 3.709 20.872 20.872 0 0 0-2.817 2.537c-.114-.149-.229-.297-.337-.451-.669-.931-1.109-1.823-1.291-2.606-.183-.777-.114-1.417.189-1.937.297-.52.823-.897 1.583-1.131.503-.154 1.109-.234 1.783-.24zm13.24 0c.68.006 1.28.086 1.783.24.766.234 1.286.611 1.589 1.131.297.52.366 1.16.183 1.937-.183.783-.623 1.674-1.291 2.606a13.91 13.91 0 0 1-.337.451c-.794-.869-1.743-1.72-2.811-2.537a21.513 21.513 0 0 0-.794-3.709c.189-.023.377-.051.56-.069.274-.029.549-.046.829-.051h.291zm-2.675.303c.269.829.486 1.737.651 2.714-.531-.36-1.074-.697-1.629-1.017s-1.126-.623-1.697-.903a19.064 19.064 0 0 1 2.674-.794zm-7.891 0c.851.183 1.749.446 2.68.794a26.978 26.978 0 0 0-3.332 1.92 20.27 20.27 0 0 1 .651-2.714zm3.948 1.309c.811.36 1.64.777 2.463 1.251.823.48 1.6.989 2.32 1.514.097.886.149 1.806.149 2.76s-.051 1.874-.149 2.76A24.998 24.998 0 0 1 18.514 18c-.823.48-1.651.897-2.463 1.257A24.565 24.565 0 0 1 13.582 18c-.823-.474-1.6-.983-2.32-1.509-.091-.88-.149-1.806-.149-2.76s.057-1.874.149-2.76a26.992 26.992 0 0 1 2.32-1.514 25.695 25.695 0 0 1 2.469-1.251zm.063 1.508-2.863 1.766 2.863 1.771 2.869-1.771-2.869-1.766zm-5.931 2.097a26.773 26.773 0 0 0 0 3.84 19.416 19.416 0 0 1-2.029-1.92 18.837 18.837 0 0 1 2.029-1.92zm11.731 0a18.837 18.837 0 0 1 2.029 1.92 18.837 18.837 0 0 1-2.029 1.92 26.773 26.773 0 0 0 0-3.84zm-9.308.446v3.497l3.011 1.857V14.12l-3.011-1.863zm7.023.006-3.011 1.857v3.491l3.011-1.857v-3.491zm-12.126 2.24c.794.869 1.743 1.72 2.817 2.537.166 1.337.434 2.583.789 3.709l-.56.069c-1.137.114-2.131.04-2.897-.189-.766-.234-1.291-.611-1.589-1.131-.303-.52-.366-1.16-.189-1.937.183-.783.623-1.68 1.291-2.611.109-.149.223-.297.337-.446zm17.091 0c.12.149.234.297.337.446.669.931 1.109 1.829 1.291 2.611.183.777.114 1.417-.183 1.937-.303.52-.823.897-1.589 1.131-.766.229-1.76.297-2.903.189l-.56-.069c.354-1.126.623-2.371.794-3.709 1.069-.817 2.017-1.669 2.811-2.537zm-3.948 3.348a19.39 19.39 0 0 1-.651 2.714 19.12 19.12 0 0 1-2.674-.794c.577-.28 1.143-.583 1.697-.903s1.097-.657 1.629-1.017zm-9.195 0c.531.36 1.074.697 1.629 1.017.56.32 1.126.623 1.703.903-.931.349-1.829.611-2.68.794a19.147 19.147 0 0 1-.651-2.714zm4.629.046.034.023.04-.023h-.074zm-.029 2.452c1.24.52 2.457.914 3.6 1.171-.069.171-.137.343-.217.514-.474 1.046-1.029 1.874-1.611 2.423-.583.543-1.171.806-1.771.806s-1.189-.263-1.777-.806c-.583-.549-1.137-1.377-1.611-2.423-.074-.171-.149-.343-.217-.514a21.777 21.777 0 0 0 3.606-1.171z"/>
    </symbol>
    <symbol id="icon-telephone-receiver" viewBox="0 0 32 32">
      <path d="m27.65 22.45-.17-.21c-1.38-1.74-2.52-2.64-3.51-2.76-.85-.12-1.67.47-2.54 1.08l-.94.58c-.11.06-.22.1-.33.13-.54.16-1.92.25-2.7-.47-.91-.83-2.32-2.35-3.42-3.68-1.05-1.38-2.2-3.1-2.8-4.18-.51-.91-.09-2.19.2-2.67.05-.09.13-.18.21-.27l.82-.77c.02-.01.02-.02.03-.03s.02-.01.03-.02c.75-.62 1.52-1.27 1.62-2.1.12-.98-.48-2.3-1.86-4.03l-.16-.22C11.27 1.74 9.99.09 8.14.37c-.73.1-1.38.35-2.05.77 0 .01-.01.01-.01.02-.01 0-.01 0-.02.01l-.93.69c-.01 0-.02.01-.02.02-.01.01-.02.01-.03.02-.11.09-.22.18-.32.28-.95.84-2.99 3.29-1.6 7.81.9 2.92 2.76 6.33 5.39 9.88l-.03.02 1.45 1.81.02-.01c2.84 3.37 5.74 5.98 8.4 7.55 1.78 1.06 3.32 1.41 4.6 1.41 1.68 0 2.88-.61 3.48-1l.38-.25c.04-.03.07-.07.1-.11l.83-.62c.01-.01.01-.02.02-.03h.02c.59-.54.99-1.1 1.27-1.77.74-1.7-.57-3.34-1.44-4.42zm.46 4c-.22.52-.54.96-1 1.39l-1.23.92c-1.11.72-3.49 1.62-6.94-.43-2.66-1.58-5.58-4.25-8.46-7.71l-.78-.99c-2.71-3.59-4.62-7.04-5.52-9.95-1.17-3.8.31-5.83 1.29-6.71.1-.09.2-.18.3-.26l.9-.67c.54-.34 1.05-.53 1.63-.62 1.24-.19 2.24 1.12 2.98 2.07l.18.22c1.53 1.94 1.68 2.86 1.63 3.23-.05.42-.68.96-1.24 1.43l-.08.06-.01.01c0 .01-.01.01-.01.01l-.85.79c-.01 0-.01.01-.02.02 0 0-.01.01-.02.01-.13.15-.24.3-.34.45-.47.8-.93 2.46-.21 3.74.62 1.12 1.8 2.89 2.89 4.32 1.14 1.38 2.59 2.95 3.54 3.81.7.64 1.68.86 2.53.86.46 0 .87-.06 1.19-.15.17-.05.34-.12.52-.21.01 0 .01-.01.02-.02h.02l.99-.62c.03-.02.05-.05.08-.08l.01.01c.61-.42 1.31-.91 1.74-.84.39.04 1.26.42 2.8 2.36l.18.22c.75.94 1.77 2.21 1.29 3.33z"/>
    </symbol>
    <symbol id="icon-telephone-receiver-footer" viewBox="0 0 32 32">
        <path d="M27.65 22.956l-0.175-0.221c-1.371-1.73-2.514-2.636-3.497-2.75-0.853-0.122-1.676 0.472-2.552 1.074l-0.93 0.587c-0.114 0.053-0.229 0.099-0.328 0.13-0.549 0.152-1.928 0.244-2.712-0.472-0.907-0.83-2.316-2.354-3.413-3.68-1.051-1.379-2.202-3.101-2.804-4.175-0.51-0.922-0.084-2.202 0.206-2.674 0.053-0.091 0.122-0.183 0.206-0.274l0.823-0.762c0.015-0.015 0.023-0.030 0.030-0.038s0.023-0.008 0.030-0.015c0.747-0.625 1.516-1.272 1.615-2.103 0.13-0.975-0.48-2.293-1.851-4.030l-0.168-0.213c-0.853-1.090-2.141-2.743-3.985-2.469-0.731 0.107-1.379 0.35-2.050 0.777-0.008 0-0.008 0.008-0.015 0.015-0.008 0-0.015 0-0.015 0.008l-0.937 0.686c-0.008 0.008-0.015 0.023-0.023 0.030s-0.015 0.008-0.023 0.015c-0.107 0.091-0.213 0.183-0.32 0.274-0.945 0.846-2.994 3.291-1.6 7.817 0.899 2.926 2.758 6.331 5.387 9.882l-0.023 0.023 1.448 1.806 0.015-0.008c2.85 3.368 5.745 5.973 8.404 7.55 1.775 1.051 3.322 1.402 4.602 1.402 1.676 0 2.872-0.602 3.474-0.998l0.381-0.251c0.046-0.030 0.076-0.069 0.107-0.107l0.823-0.625c0.008-0.008 0.015-0.015 0.023-0.023s0.015 0 0.015-0.008c0.587-0.533 0.998-1.097 1.28-1.76 0.731-1.707-0.579-3.337-1.448-4.419zM28.114 26.956c-0.221 0.518-0.541 0.952-1.006 1.379l-1.227 0.93c-1.112 0.724-3.49 1.615-6.941-0.434-2.659-1.577-5.585-4.244-8.465-7.71l-0.777-0.99c-2.712-3.589-4.617-7.032-5.516-9.95-1.173-3.794 0.305-5.829 1.288-6.705 0.099-0.091 0.206-0.175 0.305-0.259v-0.008l0.899-0.663c0.541-0.343 1.044-0.533 1.623-0.625 1.242-0.183 2.248 1.12 2.987 2.072l0.175 0.221c1.539 1.935 1.684 2.857 1.638 3.23-0.053 0.419-0.693 0.952-1.25 1.425l-0.076 0.069c-0.008 0-0.008 0.008-0.008 0.008-0.008 0-0.008 0-0.015 0.008l-0.853 0.785c0 0.008-0.008 0.015-0.008 0.023-0.008 0.008-0.023 0.008-0.023 0.015-0.137 0.145-0.343 0.45-0.343 0.45s-0.93 2.453-0.213 3.733c0.625 1.12 1.806 2.895 2.895 4.32 1.143 1.387 2.59 2.949 3.535 3.81 0.701 0.648 1.684 0.861 2.537 0.861 0.45 0 0.869-0.061 1.189-0.152 0.16-0.046 0.335-0.114 0.51-0.206 0.015 0 0.015-0.015 0.030-0.015 0-0.008 0.015-0.008 0.015-0.008l0.99-0.617c0.030-0.023 0.053-0.053 0.084-0.076l0.008 0.008c0.61-0.419 1.303-0.914 1.737-0.846 0.389 0.046 1.265 0.419 2.804 2.362l0.175 0.221c0.747 0.937 1.775 2.217 1.295 3.337z"></path>
    </symbol>
    <symbol id="icon-star_1" viewBox="0 0 32 32">
      <path fill="#011f4a" style="fill: var(--color1, #011f4a)" d="M6.691 0l3.491 14.32-10.183 10.657 14.32-3.491 10.657 10.183-3.491-14.32 10.183-10.657-14.32 3.491-10.657-10.183z"></path>
    </symbol>
    <symbol id="icon-star_2" viewBox="0 0 32 32">
      <path fill="#2b7fff" style="fill: var(--color2, #2b7fff)" d="M24.978 0l-10.661 10.176-14.318-3.483 10.176 10.651-3.483 14.327 10.651-10.185 14.327 3.493-10.185-10.661 3.493-14.318z"></path>
    </symbol>
    <symbol id="icon-star_3" viewBox="0 0 32 32">
      <path fill="#747272" style="fill: var(--color3, #747272)" d="M7.424-0.939l1.579 13.675-10.667 8.704 13.675-1.6 8.683 10.667-1.579-13.675 10.667-8.683-13.675 1.579-8.683-10.667z"></path>
    </symbol>   
<symbol id="icon-burger-menu" viewBox="0 0 46 32">
<path d="M45.714 29.714c0 1.257-1.029 2.286-2.286 2.286h-18.309c-0.594 0-1.189-0.251-1.6-0.686-0.434-0.411-0.663-1.006-0.663-1.6s0.229-1.189 0.663-1.6c0.411-0.434 1.006-0.686 1.6-0.686h18.309c1.257 0 2.286 1.029 2.286 2.286zM45.714 16c0 1.234-1.029 2.263-2.286 2.263h-41.166c-0.594 0-1.189-0.229-1.6-0.663-0.434-0.434-0.663-1.006-0.663-1.6 0-0.617 0.229-1.189 0.663-1.623 0.411-0.434 1.006-0.663 1.6-0.663h41.166c1.257 0 2.286 1.029 2.286 2.286zM43.429 4.549c0.594 0 1.189-0.251 1.6-0.686 0.434-0.411 0.686-1.006 0.686-1.6s-0.251-1.189-0.686-1.6c-0.411-0.434-1.006-0.663-1.6-0.663h-27.451c-0.297 0-0.594 0.046-0.869 0.16s-0.526 0.274-0.731 0.503c-0.229 0.206-0.389 0.457-0.503 0.731s-0.16 0.571-0.16 0.869c0 0.297 0.046 0.594 0.16 0.869s0.274 0.526 0.503 0.731c0.206 0.229 0.457 0.389 0.731 0.503s0.571 0.183 0.869 0.183h27.451z"></path>
</symbol>
<symbol id="icon-close" viewBox="0 0 32 32">
<path stroke-linejoin="miter" stroke-linecap="round" stroke-miterlimit="4" stroke-width="4.5689" d="M2.284 2.284l13.707 13.707 13.707-13.707"></path>
<path stroke-linejoin="miter" stroke-linecap="round" stroke-miterlimit="4" stroke-width="4.5689" d="M2.284 29.698l13.707-13.707 13.707 13.707"></path>
</symbol>
  </defs>
</svg>
